<svg width="192" height="192" viewBox="0 0 192 192" xmlns="http://www.w3.org/2000/svg">
  <defs>
    <linearGradient id="bgGradient192" x1="0%" y1="0%" x2="100%" y2="100%">
      <stop offset="0%" style="stop-color:#1e293b;stop-opacity:1" />
      <stop offset="100%" style="stop-color:#0f172a;stop-opacity:1" />
    </linearGradient>
    <linearGradient id="dollarGradient192" x1="0%" y1="0%" x2="100%" y2="100%">
      <stop offset="0%" style="stop-color:#ffd700;stop-opacity:1" />
      <stop offset="50%" style="stop-color:#ffa500;stop-opacity:1" />
      <stop offset="100%" style="stop-color:#ff8c00;stop-opacity:1" />
    </linearGradient>
  </defs>
  
  <!-- Background -->
  <rect width="192" height="192" rx="38" fill="url(#bgGradient192)"/>
  
  <!-- Dollar Sign -->
  <path d="M96 24 L96 39 Q111 39 123 51 Q135 63 135 78 Q135 84 132 87 L120 87 Q123 81 123 78 Q123 69 114 60 Q105 51 96 51 L96 93 Q111 93 123 105 Q135 117 135 132 Q135 147 123 159 Q111 171 96 171 L96 180 L84 180 L84 171 Q69 171 57 159 Q45 147 45 132 Q45 126 48 123 L60 123 Q57 129 57 132 Q57 141 66 150 Q75 159 84 159 L84 117 Q69 117 57 105 Q45 93 45 78 Q45 63 57 51 Q69 39 84 39 L84 24 Z M84 51 Q75 51 66 60 Q57 69 57 78 Q57 87 66 96 Q75 105 84 105 Z M96 105 Q105 105 114 114 Q123 123 123 132 Q123 141 114 150 Q105 159 96 159 Z" fill="url(#dollarGradient192)"/>
</svg>