<svg width="192" height="192" viewBox="0 0 192 192" xmlns="http://www.w3.org/2000/svg">
  <defs>
    <linearGradient id="bgGradient" x1="0%" y1="0%" x2="100%" y2="100%">
      <stop offset="0%" style="stop-color:#1e293b;stop-opacity:1" />
      <stop offset="100%" style="stop-color:#0f172a;stop-opacity:1" />
    </linearGradient>
    <linearGradient id="wingGradient" x1="0%" y1="0%" x2="100%" y2="100%">
      <stop offset="0%" style="stop-color:#0ea5e9;stop-opacity:1" />
      <stop offset="50%" style="stop-color:#3b82f6;stop-opacity:1" />
      <stop offset="100%" style="stop-color:#1e40af;stop-opacity:1" />
    </linearGradient>
    <linearGradient id="bodyGradient" x1="0%" y1="0%" x2="100%" y2="100%">
      <stop offset="0%" style="stop-color:#7c3aed;stop-opacity:1" />
      <stop offset="50%" style="stop-color:#8b5cf6;stop-opacity:1" />
      <stop offset="100%" style="stop-color:#f97316;stop-opacity:1" />
    </linearGradient>
  </defs>
  
  <!-- Background -->
  <rect width="192" height="192" rx="38" fill="url(#bgGradient)"/>
  
  <!-- Bird Wings (layered curves) -->
  <path d="M48 110 Q30 90, 35 75 Q40 60, 55 70 Q48 85, 48 110 Z" fill="url(#wingGradient)" opacity="0.9"/>
  <path d="M40 125 Q25 110, 28 100 Q32 90, 42 95 Q40 105, 40 125 Z" fill="url(#wingGradient)" opacity="0.8"/>
  <path d="M35 135 Q25 125, 27 118 Q30 112, 35 115 Q35 125, 35 135 Z" fill="url(#wingGradient)" opacity="0.7"/>
  
  <!-- Bird Body -->
  <ellipse cx="110" cy="110" rx="35" ry="45" fill="url(#bodyGradient)"/>
  
  <!-- Bird Head -->
  <circle cx="125" cy="85" r="20" fill="url(#bodyGradient)"/>
  
  <!-- Bird Eye -->
  <circle cx="132" cy="80" r="5" fill="#0ea5e9"/>
  
  <!-- Bird Beak -->
  <path d="M140 82 L 155 78 L 148 88 Z" fill="#f97316"/>
</svg>