 <svg  version="1.0" xmlns="http://www.w3.org/2000/svg"  width="1024.000000pt" height="1024.000000pt" viewBox="0 0 1024.000000 1024.000000"  preserveAspectRatio="xMidYMid meet">  <g transform="translate(0.000000,1024.000000) scale(0.100000,-0.100000)" fill="#bb8a35" stroke="none"> <path d="M1731 9118 c-5 -13 -61 -142 -124 -288 -102 -236 -372 -865 -384 -897 -4 -10 18 -13 89 -13 l94 0 163 388 c207 491 220 521 237 556 8 16 12 31 9 34 -2 3 -13 -14 -23 -36 -10 -23 -22 -39 -27 -34 -5 4 -5 2 -2 -4 7 -13 -3 -40 -140 -364 -53 -124 -100 -228 -107 -232 -6 -4 -8 -8 -4 -8 11 0 -13 -60 -24 -60 -5 0 -7 -4 -4 -9 9 -14 -5 -42 -17 -34 -6 3 -7 1 -3 -5 3 -6 -9 -48 -28 -94 l-34 -83 -81 -3 c-69 -2 -81 0 -81 13 0 10 5 13 12 9 7 -5 9 -2 5 9 -3 9 0 18 9 21 9 3 14 14 12 23 -4 23 31 113 43 113 6 0 8 4 4 9 -7 12 15 61 27 61 5 0 7 4 3 9 -6 10 133 334 146 339 4 2 5 10 2 19 -5 12 -3 14 7 8 8 -5 11 -4 6 3 -7 11 140 362 157 373 5 3 8 9 8 13 -3 20 0 26 10 20 8 -4 9 1 4 16 -5 15 -4 20 4 16 7 -5 9 -1 5 8 -3 9 -1 16 6 16 6 0 9 4 6 9 -3 5 0 11 8 14 9 4 12 14 9 28 -4 14 -2 20 5 15 6 -3 13 3 17 14 5 15 15 20 43 20 54 0 81 -10 75 -26 -3 -8 2 -16 10 -20 9 -3 13 -12 10 -21 -5 -12 -3 -14 7 -8 10 6 12 4 7 -8 -3 -10 -2 -17 4 -17 6 0 7 -4 4 -10 -3 -5 -2 -10 4 -10 6 0 7 -7 4 -17 -5 -12 -3 -14 7 -8 10 6 12 4 7 -9 -5 -11 -3 -15 5 -10 8 5 9 2 5 -10 -5 -11 -3 -15 5 -10 8 5 9 2 5 -9 -3 -10 -2 -17 4 -17 6 0 8 -8 5 -18 -4 -11 2 -27 13 -39 11 -11 17 -24 14 -27 -4 -3 -1 -6 5 -6 6 0 9 -7 5 -17 -5 -12 -3 -14 7 -8 10 6 12 4 6 -11 -4 -10 -4 -15 0 -11 10 10 36 -52 27 -66 -4 -6 -1 -7 7 -2 10 6 12 4 7 -9 -5 -11 -3 -15 5 -10 8 5 9 2 5 -9 -3 -10 -3 -17 2 -17 7 0 31 -43 31 -56 0 -3 -6 -2 -12 1 -7 4 -4 -1 6 -9 11 -9 16 -16 12 -16 -4 0 0 -7 9 -16 9 -9 14 -23 11 -31 -4 -9 -2 -11 6 -7 8 5 9 2 5 -9 -4 -10 -2 -17 4 -17 6 0 8 -7 5 -16 -3 -9 -2 -12 5 -9 6 4 10 1 8 -6 -3 -28 1 -40 12 -33 7 4 10 1 7 -7 -7 -20 -156 -30 -163 -11 -3 8 -2 19 2 24 4 7 1 8 -7 3 -10 -6 -12 -4 -7 8 3 9 2 17 -2 19 -14 5 -71 149 -64 161 3 5 2 7 -3 4 -10 -6 -100 199 -97 222 1 8 -2 10 -8 4 -6 -6 26 -94 87 -239 53 -126 100 -233 104 -237 4 -4 48 -6 98 -5 l91 3 -163 370 -163 370 -72 3 c-66 3 -72 1 -80 -20z m253 -234 c3 -8 2 -12 -4 -9 -6 3 -10 10 -10 16 0 14 7 11 14 -7z m149 -481 c-18 -2 -48 -2 -65 0 -18 2 -4 4 32 4 36 0 50 -2 33 -4z"/> <path d="M2340 9132 c0 -5 33 -90 74 -188 40 -98 112 -276 160 -394 205 -505 249 -609 257 -604 5 3 6 -2 3 -10 -4 -11 0 -16 12 -16 16 0 49 76 182 410 90 226 160 415 156 422 -4 6 -3 8 3 5 5 -3 43 78 84 181 41 103 76 191 77 195 2 4 -40 6 -94 5 l-98 -3 -51 -135 c-28 -74 -95 -251 -149 -392 -77 -203 -95 -261 -87 -275 10 -17 11 -17 12 2 1 11 2 26 2 32 -1 7 4 10 10 6 6 -4 8 2 5 15 -4 14 -2 20 5 15 6 -4 8 2 5 15 -4 12 -3 20 2 17 4 -2 20 30 35 73 15 42 32 82 36 88 5 6 3 16 -4 24 -10 10 -9 11 2 5 11 -6 13 -4 8 8 -4 10 -2 17 4 17 6 0 8 7 5 16 -3 8 -2 12 3 9 12 -7 24 31 15 46 -4 7 -3 9 4 5 6 -3 13 4 17 16 16 56 110 294 118 299 5 3 8 9 8 13 -7 48 18 66 89 66 64 0 66 -3 35 -75 -7 -16 -29 -73 -49 -125 -21 -52 -46 -115 -56 -140 -24 -57 -93 -230 -135 -340 -18 -47 -60 -154 -94 -238 -34 -84 -58 -158 -55 -164 5 -7 2 -8 -5 -4 -8 5 -11 3 -10 -5 2 -8 -2 -24 -9 -37 -7 -12 -10 -27 -6 -33 4 -8 1 -8 -13 0 -11 6 -23 7 -27 4 -6 -6 -10 15 -9 44 1 7 -4 10 -10 6 -6 -4 -8 0 -4 10 3 10 2 17 -2 17 -5 0 -7 9 -4 20 3 12 -1 22 -11 26 -9 3 -13 10 -10 15 7 11 -26 89 -38 89 -4 0 -7 3 -6 8 1 4 -4 23 -11 42 -8 19 -13 39 -12 43 1 5 -4 5 -10 1 -8 -4 -9 0 -4 16 5 17 4 21 -6 15 -9 -6 -11 -3 -6 9 5 11 3 15 -5 10 -8 -5 -9 -2 -5 9 3 10 2 17 -4 17 -6 0 -8 4 -5 9 7 11 -24 91 -35 91 -5 0 -5 7 -2 17 5 12 3 14 -7 8 -8 -5 -11 -4 -6 3 8 14 -27 105 -38 95 -4 -4 -4 0 -1 9 3 8 0 22 -8 29 -7 8 -12 19 -10 25 2 7 -3 19 -12 27 -17 18 -20 31 -4 21 8 -4 8 0 0 15 -7 11 -16 21 -22 21 -6 0 -7 5 -4 10 3 6 2 10 -4 10 -6 0 -8 6 -5 14 6 15 -20 71 -43 94 -8 8 -12 21 -9 28 3 8 1 14 -4 14 -5 0 -7 6 -4 14 3 7 -1 20 -9 27 -7 8 -12 20 -9 28 3 8 0 11 -7 7 -10 -6 -16 12 -12 37 0 4 -3 7 -9 7 -5 0 -7 7 -4 15 4 8 2 15 -3 15 -5 0 -9 8 -9 18 0 9 -4 27 -8 39 -7 20 -4 21 51 21 76 0 93 -5 93 -29 0 -10 4 -19 9 -19 4 0 14 -20 21 -45 7 -26 17 -42 23 -38 6 3 7 1 3 -6 -8 -12 32 -121 44 -121 3 0 7 -8 8 -17 6 -57 15 -92 23 -87 5 3 9 -6 9 -20 0 -13 3 -26 8 -28 7 -3 38 -76 63 -150 7 -20 15 -35 18 -33 3 1 7 -11 8 -29 2 -36 37 -109 47 -98 4 3 4 -1 1 -9 -8 -22 13 -75 26 -62 13 13 -39 155 -54 146 -6 -4 -7 -1 -3 6 10 15 -83 263 -95 255 -5 -3 -6 1 -4 8 3 7 -28 97 -68 198 l-73 185 -97 3 c-53 1 -97 -1 -97 -6z"/> <path d="M2404 8626 c-3 -8 -2 -20 2 -27 4 -7 3 -9 -3 -6 -6 4 -34 -50 -69 -133 l-59 -140 -285 0 -285 0 -35 -82 c-19 -45 -36 -86 -38 -90 -2 -4 108 -8 245 -8 l248 0 45 -108 46 -107 102 -3 103 -3 -36 70 -35 70 81 187 81 188 -43 98 c-45 104 -55 119 -65 94z m29 -63 c-4 -11 -3 -14 5 -9 7 4 10 2 6 -7 -7 -18 14 -70 25 -63 5 4 7 -4 3 -16 -3 -11 -1 -19 4 -16 5 4 9 -7 9 -22 0 -15 -4 -26 -9 -23 -5 3 -7 0 -4 -8 3 -8 -2 -20 -9 -28 -8 -7 -12 -20 -9 -28 3 -8 2 -12 -3 -9 -11 7 -35 -49 -27 -62 3 -6 -1 -13 -10 -16 -9 -3 -14 -13 -11 -20 3 -8 -1 -20 -9 -27 -8 -7 -13 -18 -10 -26 3 -7 1 -13 -5 -13 -6 0 -7 -4 -4 -10 3 -5 2 -10 -4 -10 -6 0 -7 -7 -4 -17 5 -12 3 -14 -7 -8 -10 6 -12 4 -7 -8 3 -10 3 -17 -1 -17 -11 0 -9 -72 3 -90 5 -8 10 -22 10 -30 0 -8 6 -14 14 -12 8 2 11 -3 8 -12 -3 -8 -1 -17 6 -20 7 -3 -30 -5 -80 -4 -51 0 -94 5 -94 9 -1 5 -2 15 -3 22 -1 6 -7 18 -14 26 -7 7 -11 20 -8 28 4 9 1 11 -5 7 -7 -4 -10 -1 -7 7 3 8 -2 20 -9 28 -8 7 -12 20 -9 28 3 8 1 11 -4 8 -6 -3 -10 -4 -10 -1 0 2 -3 13 -6 23 -5 15 -4 15 5 3 7 -10 11 -11 11 -3 0 28 -44 33 -274 33 -130 0 -236 3 -236 8 0 4 14 40 32 80 l32 72 205 0 c136 0 201 -4 191 -10 -10 -6 13 -9 71 -9 81 1 87 2 99 24 7 14 17 22 21 19 5 -3 6 2 3 10 -3 9 -1 16 6 16 6 0 8 5 5 10 -3 6 -1 10 5 10 7 0 9 7 6 16 -4 10 -2 13 6 8 7 -5 9 -2 5 9 -3 9 1 18 10 21 9 4 13 14 10 26 -3 11 -1 20 4 20 4 0 5 7 2 17 -4 10 -2 14 4 10 13 -8 26 20 16 35 -3 7 -1 8 5 4 7 -4 12 -1 12 8 0 8 8 17 18 19 9 3 18 5 19 6 1 0 -1 -6 -4 -16z m-260 -260 c-7 -2 -21 -2 -30 0 -10 3 -4 5 12 5 17 0 24 -2 18 -5z"/> <path d="M1783 8293 c9 -2 25 -2 35 0 9 3 1 5 -18 5 -19 0 -27 -2 -17 -5z"/> <path d="M1948 8293 c7 -3 16 -2 19 1 4 3 -2 6 -13 5 -11 0 -14 -3 -6 -6z"/> <path d="M2846 8331 c-4 -7 -5 -15 -2 -18 9 -9 19 4 14 18 -4 11 -6 11 -12 0z"/> <path d="M2995 7768 c-43 -9 -88 -45 -78 -61 3 -6 1 -7 -5 -3 -26 16 -50 -85 -32 -138 6 -20 16 -34 21 -31 5 4 6 0 3 -8 -7 -20 49 -65 92 -73 19 -3 51 -4 70 -1 45 8 107 54 100 74 -3 8 -2 12 3 8 14 -8 34 63 28 101 -16 97 -104 155 -202 132z m45 -52 c38 1 68 -1 67 -5 -3 -9 29 -52 34 -46 3 2 1 -21 -3 -53 -5 -31 -9 -65 -10 -74 -1 -9 -4 -15 -6 -13 -3 2 -18 -3 -35 -11 -27 -15 -47 -15 -117 -1 -8 2 -24 9 -35 16 -17 11 -18 12 -1 7 14 -5 17 -3 11 11 -13 30 -22 122 -11 116 5 -4 7 1 3 10 -4 10 -2 16 5 14 7 -1 13 4 14 11 4 32 6 36 10 27 2 -5 35 -9 74 -9z m-123 -118 c-2 -13 -4 -5 -4 17 -1 22 1 32 4 23 2 -10 2 -28 0 -40z m240 30 c-3 -8 -6 -5 -6 6 -1 11 2 17 5 13 3 -3 4 -12 1 -19z m30 -25 c-3 -10 -5 -4 -5 12 0 17 2 24 5 18 2 -7 2 -21 0 -30z m-300 5 c-3 -8 -6 -5 -6 6 -1 11 2 17 5 13 3 -3 4 -12 1 -19z m160 -124 c-3 -3 -12 -4 -19 -1 -8 3 -5 6 6 6 11 1 17 -2 13 -5z"/> <path d="M1326 7633 c-74 -178 -75 -186 -45 -181 17 2 30 16 44 46 l19 42 64 0 63 0 19 -45 c16 -36 24 -45 45 -45 14 0 25 3 25 7 0 4 -28 76 -62 160 -58 144 -64 153 -89 153 -25 0 -31 -9 -83 -137z m97 110 c-4 -10 -2 -14 4 -10 10 6 38 -51 45 -93 2 -8 5 -17 8 -20 13 -11 61 -132 56 -137 -3 -4 -6 -1 -6 6 0 8 -6 11 -16 7 -8 -3 -12 -2 -9 4 3 6 1 10 -6 10 -8 0 -8 4 1 15 7 9 10 19 6 22 -4 4 -11 1 -15 -6 -7 -10 -10 -9 -16 8 -6 18 -14 21 -67 21 -34 0 -59 -3 -55 -6 3 -3 -2 -13 -11 -23 -13 -13 -20 -14 -29 -5 -15 15 -17 28 -3 19 6 -3 7 1 4 9 -3 9 -1 16 6 16 6 0 8 5 5 10 -3 6 1 10 9 10 9 0 16 -4 16 -10 0 -5 25 -10 55 -10 32 0 55 4 55 11 0 5 5 7 11 3 7 -4 10 -1 7 7 -3 8 -11 13 -17 11 -7 -1 -10 2 -7 7 4 5 1 13 -5 16 -5 4 -8 14 -5 22 3 8 2 12 -3 9 -4 -3 -13 5 -19 19 -13 29 -40 27 -58 -6 -20 -36 -17 -17 6 35 14 33 25 46 39 46 15 0 19 -5 14 -17z m-47 -94 c-9 -23 -15 -44 -12 -46 2 -2 13 19 23 48 l20 51 18 -43 c9 -24 20 -50 22 -57 4 -10 -6 -12 -43 -10 -42 3 -49 6 -47 23 1 11 -4 23 -10 27 -8 5 -6 8 5 8 10 0 20 11 24 25 4 14 9 24 11 21 3 -3 -2 -24 -11 -47z m-66 -134 c11 -13 10 -14 -4 -9 -10 4 -16 1 -16 -7 0 -7 -2 -10 -5 -7 -5 5 4 38 10 38 1 0 8 -7 15 -15z"/> <path d="M1390 7739 c0 -5 5 -7 10 -4 6 3 10 8 10 11 0 2 -4 4 -10 4 -5 0 -10 -5 -10 -11z"/> <path d="M1610 7655 c0 -131 11 -165 62 -191 40 -21 120 -14 149 12 37 32 47 73 47 187 l0 107 -29 0 -29 0 0 -115 c0 -102 -2 -117 -20 -135 -25 -25 -71 -26 -101 -1 -22 18 -24 27 -27 135 -4 115 -4 116 -28 116 -24 0 -24 0 -24 -115z m24 90 c-4 -8 -1 -15 4 -15 7 0 8 -11 1 -32 -11 -41 -11 -41 4 -32 9 6 9 4 1 -7 -6 -8 -12 -36 -13 -64 -4 -93 -11 -59 -11 53 0 66 4 112 10 112 5 0 7 -7 4 -15z m207 -199 c5 -6 9 -14 9 -20 0 -5 -7 -1 -15 10 -10 13 -14 40 -13 84 l2 65 3 -65 c2 -36 8 -69 14 -74z m-156 -39 c15 -8 9 -37 -8 -37 -6 0 -7 3 -4 7 4 3 -5 15 -20 25 -16 10 -22 18 -15 18 6 0 12 10 13 23 0 21 1 21 10 -3 6 -14 16 -28 24 -33z m143 -15 c-7 -8 -14 -9 -23 -2 -6 5 -16 6 -20 2 -5 -4 0 5 11 19 17 23 20 25 31 10 8 -11 8 -20 1 -29z m-81 -8 c-3 -3 -12 -4 -19 -1 -8 3 -5 6 6 6 11 1 17 -2 13 -5z m26 -21 c-7 -2 -19 -2 -25 0 -7 3 -2 5 12 5 14 0 19 -2 13 -5z"/> <path d="M1962 7614 l3 -159 25 0 c24 0 25 3 22 49 -5 68 0 77 38 66 24 -7 32 -6 37 7 3 8 0 19 -8 24 -11 6 -8 9 9 9 16 0 22 -6 22 -21 0 -20 1 -20 29 -3 55 32 68 104 27 151 -23 26 -30 28 -115 32 l-92 3 3 -158z m61 139 c-7 -2 -19 -2 -25 0 -7 3 -2 5 12 5 14 0 19 -2 13 -5z m44 1 c-3 -3 -12 -4 -19 -1 -8 3 -5 6 6 6 11 1 17 -2 13 -5z m12 -18 c-10 -8 -89 -13 -89 -5 0 5 21 9 47 9 25 0 44 -2 42 -4z m77 -5 c-4 -5 0 -12 6 -15 7 -4 -3 -4 -22 -1 -27 4 -32 3 -22 -7 15 -15 16 -60 0 -76 -9 -9 -9 -12 0 -12 7 0 12 4 12 9 0 5 7 8 15 7 19 -3 28 -12 13 -14 -7 0 -20 -2 -28 -3 -8 -1 -38 -1 -66 -1 l-51 2 0 50 1 50 45 1 c25 1 57 5 71 9 14 4 26 8 28 9 2 1 1 -3 -2 -8z m-179 -98 c-2 -16 -4 -3 -4 27 0 30 2 43 4 28 2 -16 2 -40 0 -55z m170 30 c-3 -10 -5 -4 -5 12 0 17 2 24 5 18 2 -7 2 -21 0 -30z m-117 -61 c-8 -3 -21 -9 -27 -15 -10 -7 -13 -4 -13 10 0 17 5 19 28 15 16 -3 21 -7 12 -10z m-53 -79 c-3 -10 -5 -2 -5 17 0 19 2 27 5 18 2 -10 2 -26 0 -35z"/> <path d="M2290 7612 l0 -159 108 2 c106 2 107 3 107 26 0 23 -2 24 -82 24 l-83 0 0 45 0 45 71 -3 70 -4 -3 28 c-3 27 -4 28 -70 25 l-68 -2 0 40 0 41 80 0 c79 0 80 0 80 25 l0 25 -105 0 -105 0 0 -158z m46 112 c-8 -8 -19 -14 -25 -14 -18 0 -12 28 7 33 26 5 34 -3 18 -19z m4 -109 c0 -9 -7 -18 -15 -21 -10 -4 -12 -15 -9 -34 4 -16 1 -31 -5 -35 -9 -5 -11 14 -10 68 2 73 2 74 20 56 11 -11 19 -26 19 -34z m-2 -122 c2 -8 -5 -13 -17 -13 -12 0 -21 6 -21 16 0 18 31 15 38 -3z"/> <path d="M2580 7745 c0 -23 3 -25 51 -25 l51 0 -4 -132 -3 -133 25 0 25 0 3 133 3 132 49 0 c47 0 50 2 50 25 l0 25 -125 0 -125 0 0 -25z m148 -18 c-13 -14 -44 -12 -54 4 -3 5 11 9 31 9 30 0 34 -2 23 -13z"/> <path d="M2084 7558 c-7 -10 5 -30 15 -24 4 3 13 0 21 -6 12 -8 12 -9 -2 -4 -22 7 -22 2 -2 -29 9 -14 20 -22 25 -19 5 3 8 0 7 -8 -2 -8 7 -13 25 -14 20 -1 27 3 25 15 -2 9 -8 16 -13 16 -14 1 -52 24 -39 25 5 0 15 -5 22 -12 22 -22 12 6 -13 36 -23 29 -60 41 -71 24z"/> <path d="M1290 7351 c0 -19 12 -41 20 -36 5 3 6 -3 4 -12 -2 -10 13 -70 33 -133 35 -105 40 -115 63 -115 22 0 27 9 52 90 23 73 26 95 18 125 -6 21 -6 36 0 38 5 2 6 11 3 20 -3 9 3 6 13 -7 10 -14 19 -38 21 -55 2 -25 1 -28 -8 -16 -9 13 -10 12 -5 -3 3 -10 6 -23 6 -28 0 -6 4 -8 9 -5 5 4 7 -4 3 -16 -3 -13 -1 -19 5 -15 7 5 9 -1 5 -15 -3 -13 -1 -19 5 -15 7 5 9 0 6 -11 -2 -11 2 -36 11 -56 12 -29 20 -37 36 -34 18 2 30 28 70 153 28 83 50 151 50 153 0 2 -12 2 -27 0 -23 -3 -29 -12 -50 -73 -13 -40 -21 -81 -18 -95 4 -17 3 -21 -4 -11 -7 10 -11 6 -16 -18 -3 -17 -11 -34 -17 -37 -6 -4 -8 1 -4 14 4 12 -6 62 -24 122 -28 88 -35 101 -52 98 -15 -2 -25 -16 -34 -48 -8 -25 -12 -51 -9 -58 3 -7 1 -11 -4 -7 -12 7 -25 -51 -15 -66 4 -8 3 -9 -4 -5 -9 5 -10 -5 -6 -37 5 -35 3 -45 -10 -50 -9 -4 -16 -2 -16 4 0 6 -4 8 -9 4 -6 -3 -5 10 0 30 8 29 6 52 -11 113 -33 115 -36 122 -65 122 -14 0 -25 -4 -25 -9z m57 -53 c-3 -8 -6 -5 -6 6 -1 11 2 17 5 13 3 -3 4 -12 1 -19z m271 -169 c-7 -5 -10 -9 -6 -9 4 0 0 -9 -9 -20 -13 -14 -19 -16 -25 -7 -6 9 -8 8 -8 -2 0 -8 -3 -12 -6 -8 -10 10 40 64 54 59 11 -4 11 -6 0 -13z"/> <path d="M1834 7324 c-8 -19 -12 -40 -8 -46 4 -6 3 -8 -3 -5 -12 8 -77 -149 -67 -164 4 -7 3 -9 -3 -6 -6 4 -15 -5 -22 -19 -15 -33 -15 -34 13 -34 28 0 42 14 51 53 7 27 9 28 72 25 65 -3 66 -3 77 -38 9 -27 17 -36 39 -38 27 -3 32 4 21 32 -3 9 -11 13 -17 9 -6 -3 -7 -1 -3 6 10 16 -33 123 -47 114 -6 -4 -7 -1 -3 6 10 15 -13 73 -25 65 -5 -3 -6 1 -3 9 9 24 -12 62 -36 64 -16 1 -25 -7 -36 -33z m46 -13 c0 -5 3 -18 6 -28 6 -16 5 -16 -10 2 -15 19 -15 18 -5 -12 6 -19 15 -30 22 -26 6 3 7 1 3 -6 -9 -14 3 -53 14 -46 5 3 15 -4 23 -15 7 -11 17 -17 21 -13 4 4 4 0 0 -10 -4 -11 -17 -17 -38 -16 -26 0 -28 2 -11 9 14 6 4 8 -35 8 -49 -1 -51 -1 -20 -8 l35 -7 -42 -2 c-24 0 -46 -1 -50 -1 -5 0 -9 9 -9 20 -1 11 1 18 4 15 3 -2 11 0 19 6 9 9 13 8 13 0 0 -7 20 -11 50 -11 28 0 50 3 50 8 0 4 -20 6 -44 4 -42 -4 -43 -3 -42 26 1 17 4 28 8 26 13 -8 19 33 9 60 -9 23 -8 26 9 26 11 0 20 -4 20 -9z"/> <path d="M2087 7351 c-2 -3 -3 -71 -3 -151 l1 -145 103 -3 102 -3 0 26 c0 25 -1 25 -75 25 l-74 0 -3 128 c-3 124 -3 127 -26 128 -12 1 -24 -1 -25 -5z m48 -269 c-8 -8 -25 10 -19 20 4 6 9 5 15 -3 4 -7 6 -15 4 -17z"/> <path d="M2370 7203 l0 -154 98 3 c92 3 97 4 100 26 3 21 0 22 -72 22 l-75 0 -3 128 c-3 124 -4 127 -25 128 -23 1 -23 1 -23 -153z m17 -65 c-3 -8 -6 -5 -6 6 -1 11 2 17 5 13 3 -3 4 -12 1 -19z m23 -48 c0 -5 -7 -7 -15 -4 -8 4 -12 10 -9 15 6 11 24 2 24 -11z"/> <path d="M2644 7347 c-2 -7 -3 -76 -2 -152 l3 -140 103 -2 c102 -1 102 -1 102 23 0 23 -2 24 -79 24 -54 0 -81 -4 -84 -12 -2 -7 -8 -10 -12 -6 -4 4 0 14 9 23 20 20 20 44 1 81 -8 15 -12 31 -8 34 3 3 8 -1 11 -9 4 -11 6 -11 13 0 6 10 9 11 9 2 0 -8 17 -14 48 -15 47 -1 47 -1 -13 -8 l-60 -7 73 -1 c71 -2 72 -2 72 23 0 24 -2 25 -68 25 l-69 0 5 29 c2 16 -1 32 -7 35 -14 9 -15 36 -1 36 5 0 7 -6 5 -12 -4 -10 14 -12 75 -10 76 3 81 5 78 24 -3 20 -10 22 -101 24 -72 3 -99 0 -103 -9z m13 -204 c-2 -37 -3 -9 -3 62 0 72 1 102 3 68 2 -34 2 -93 0 -130z"/> <path d="M2915 7352 c-3 -3 -5 -14 -5 -24 0 -15 8 -18 50 -18 l50 0 0 -130 0 -130 25 0 25 0 0 130 0 130 50 0 c45 0 50 2 50 23 0 22 -2 23 -120 23 -66 1 -122 -1 -125 -4z m145 -32 c0 -5 -9 -14 -19 -19 -15 -9 -20 -7 -24 9 -4 16 0 20 19 20 13 0 24 -4 24 -10z m-23 -72 c-3 -8 -6 -5 -6 6 -1 11 2 17 5 13 3 -3 4 -12 1 -19z m0 -160 c-3 -8 -6 -5 -6 6 -1 11 2 17 5 13 3 -3 4 -12 1 -19z"/> <path d="M1406 7134 c-4 -9 -4 -19 -1 -22 2 -3 7 3 11 12 4 9 4 19 1 22 -2 3 -7 -3 -11 -12z"/> </g> </svg> 