<svg width="32" height="32" viewBox="0 0 32 32" xmlns="http://www.w3.org/2000/svg">
  <defs>
    <linearGradient id="bgGradientFav" x1="0%" y1="0%" x2="100%" y2="100%">
      <stop offset="0%" style="stop-color:#1e293b;stop-opacity:1" />
      <stop offset="100%" style="stop-color:#0f172a;stop-opacity:1" />
    </linearGradient>
    <linearGradient id="dollarGradientFav" x1="0%" y1="0%" x2="100%" y2="100%">
      <stop offset="0%" style="stop-color:#ffd700;stop-opacity:1" />
      <stop offset="50%" style="stop-color:#ffa500;stop-opacity:1" />
      <stop offset="100%" style="stop-color:#ff8c00;stop-opacity:1" />
    </linearGradient>
  </defs>
  
  <!-- Background -->
  <rect width="32" height="32" rx="6" fill="url(#bgGradientFav)"/>
  
  <!-- Dollar Sign -->
  <path d="M16 4 L16 6.5 Q18.5 6.5 20.5 8.5 Q22.5 10.5 22.5 13 Q22.5 14 22 14.5 L20 14.5 Q20.5 13.5 20.5 13 Q20.5 11.5 19 10 Q17.5 8.5 16 8.5 L16 15.5 Q18.5 15.5 20.5 17.5 Q22.5 19.5 22.5 22 Q22.5 24.5 20.5 26.5 Q18.5 28.5 16 28.5 L16 30 L14 30 L14 28.5 Q11.5 28.5 9.5 26.5 Q7.5 24.5 7.5 22 Q7.5 21 8 20.5 L10 20.5 Q9.5 21.5 9.5 22 Q9.5 23.5 11 25 Q12.5 26.5 14 26.5 L14 19.5 Q11.5 19.5 9.5 17.5 Q7.5 15.5 7.5 13 Q7.5 10.5 9.5 8.5 Q11.5 6.5 14 6.5 L14 4 Z M14 8.5 Q12.5 8.5 11 10 Q9.5 11.5 9.5 13 Q9.5 14.5 11 16 Q12.5 17.5 14 17.5 Z M16 17.5 Q17.5 17.5 19 19 Q20.5 20.5 20.5 22 Q20.5 23.5 19 25 Q17.5 26.5 16 26.5 Z" fill="url(#dollarGradientFav)"/>
</svg>