<svg width="32" height="32" viewBox="0 0 32 32" xmlns="http://www.w3.org/2000/svg">
  <defs>
    <linearGradient id="wingGradientFav" x1="0%" y1="0%" x2="100%" y2="100%">
      <stop offset="0%" style="stop-color:#0ea5e9;stop-opacity:1" />
      <stop offset="50%" style="stop-color:#3b82f6;stop-opacity:1" />
      <stop offset="100%" style="stop-color:#1e40af;stop-opacity:1" />
    </linearGradient>
    <linearGradient id="bodyGradientFav" x1="0%" y1="0%" x2="100%" y2="100%">
      <stop offset="0%" style="stop-color:#7c3aed;stop-opacity:1" />
      <stop offset="50%" style="stop-color:#8b5cf6;stop-opacity:1" />
      <stop offset="100%" style="stop-color:#f97316;stop-opacity:1" />
    </linearGradient>
  </defs>
  
  <!-- Bird Wings -->
  <path d="M8 18 Q5 15, 6 12 Q7 10, 9 12 Q8 15, 8 18 Z" fill="url(#wingGradientFav)" opacity="0.9"/>
  <path d="M7 21 Q4 18, 5 17 Q5 15, 7 16 Q7 18, 7 21 Z" fill="url(#wingGradientFav)" opacity="0.8"/>
  <path d="M6 23 Q4 22, 5 20 Q5 19, 6 19 Q6 21, 6 23 Z" fill="url(#wingGradientFav)" opacity="0.7"/>
  
  <!-- Bird Body -->
  <ellipse cx="18" cy="18" rx="6" ry="8" fill="url(#bodyGradientFav)"/>
  
  <!-- Bird Head -->
  <circle cx="21" cy="14" r="3" fill="url(#bodyGradientFav)"/>
  
  <!-- Bird Eye -->
  <circle cx="22" cy="13" r="1" fill="#0ea5e9"/>
  
  <!-- Bird Beak -->
  <path d="M24 14 L 26 13 L 25 15 Z" fill="#f97316"/>
</svg>